<mxfile host="app.diagrams.net" agent="Mozilla/5.0 (Windows NT 10.0; Win64; x64; rv:135.0) Gecko/20100101 Firefox/135.0" version="26.0.16">
  <diagram name="Page-1" id="AXqkxCMvnj7mw_5WAitN">
    <mxGraphModel dx="3563" dy="964" grid="1" gridSize="10" guides="1" tooltips="1" connect="1" arrows="1" fold="1" page="1" pageScale="1" pageWidth="827" pageHeight="1169" math="0" shadow="0">
      <root>
        <mxCell id="0" />
        <mxCell id="1" parent="0" />
        <mxCell id="l8I180Yaeam13vPU595R-1" value="" style="ellipse;shape=cloud;whiteSpace=wrap;html=1;" parent="1" vertex="1">
          <mxGeometry x="-586.25" y="80" width="112.5" height="80" as="geometry" />
        </mxCell>
        <mxCell id="l8I180Yaeam13vPU595R-2" value="" style="ellipse;shape=cloud;whiteSpace=wrap;html=1;strokeWidth=4;" parent="1" vertex="1">
          <mxGeometry x="-370" y="590" width="120" height="80" as="geometry" />
        </mxCell>
        <mxCell id="l8I180Yaeam13vPU595R-4" value="&lt;h1 style=&quot;margin-top: 0px;&quot;&gt;&lt;font style=&quot;font-weight: normal; font-size: 16px;&quot;&gt;&amp;nbsp;Security&amp;nbsp;&lt;/font&gt;&lt;/h1&gt;" style="text;html=1;whiteSpace=wrap;overflow=hidden;rounded=0;fontStyle=4" parent="1" vertex="1">
          <mxGeometry x="-560" y="40" width="90" height="40" as="geometry" />
        </mxCell>
        <mxCell id="l8I180Yaeam13vPU595R-6" value="" style="endArrow=none;html=1;rounded=0;" parent="1" edge="1">
          <mxGeometry width="50" height="50" relative="1" as="geometry">
            <mxPoint x="-730" y="400" as="sourcePoint" />
            <mxPoint x="-570" y="140" as="targetPoint" />
            <Array as="points">
              <mxPoint x="-650" y="270" />
            </Array>
          </mxGeometry>
        </mxCell>
        <mxCell id="l8I180Yaeam13vPU595R-7" value="" style="endArrow=none;html=1;rounded=0;exitX=0.867;exitY=0.796;exitDx=0;exitDy=0;exitPerimeter=0;" parent="1" source="l8I180Yaeam13vPU595R-1" edge="1">
          <mxGeometry width="50" height="50" relative="1" as="geometry">
            <mxPoint x="-290" y="290" as="sourcePoint" />
            <mxPoint x="-340" y="390" as="targetPoint" />
          </mxGeometry>
        </mxCell>
        <mxCell id="l8I180Yaeam13vPU595R-9" value="" style="verticalLabelPosition=bottom;verticalAlign=top;html=1;shape=mxgraph.basic.arc;startAngle=0.5425356065577953;endAngle=0.9778621933491073;rotation=-90;" parent="1" vertex="1">
          <mxGeometry x="-574.37" y="101.88" width="96.25" height="120" as="geometry" />
        </mxCell>
        <mxCell id="l8I180Yaeam13vPU595R-10" value="" style="ellipse;shape=cloud;whiteSpace=wrap;html=1;" parent="1" vertex="1">
          <mxGeometry x="-800" y="380" width="120" height="80" as="geometry" />
        </mxCell>
        <mxCell id="l8I180Yaeam13vPU595R-11" value="" style="ellipse;shape=cloud;whiteSpace=wrap;html=1;" parent="1" vertex="1">
          <mxGeometry x="-598.12" y="400" width="120" height="80" as="geometry" />
        </mxCell>
        <mxCell id="l8I180Yaeam13vPU595R-12" value="" style="ellipse;shape=cloud;whiteSpace=wrap;html=1;" parent="1" vertex="1">
          <mxGeometry x="-390" y="380" width="120" height="80" as="geometry" />
        </mxCell>
        <mxCell id="l8I180Yaeam13vPU595R-13" value="" style="endArrow=none;html=1;rounded=0;entryX=0.55;entryY=0.95;entryDx=0;entryDy=0;entryPerimeter=0;exitX=0.4;exitY=0.1;exitDx=0;exitDy=0;exitPerimeter=0;" parent="1" source="l8I180Yaeam13vPU595R-11" target="l8I180Yaeam13vPU595R-1" edge="1">
          <mxGeometry width="50" height="50" relative="1" as="geometry">
            <mxPoint x="-590" y="350" as="sourcePoint" />
            <mxPoint x="-540" y="300" as="targetPoint" />
          </mxGeometry>
        </mxCell>
        <mxCell id="l8I180Yaeam13vPU595R-14" value="&lt;h1 style=&quot;margin-top: 0px;&quot;&gt;&lt;font style=&quot;font-size: 13px;&quot;&gt;&lt;span style=&quot;background-color: transparent; color: light-dark(rgb(0, 0, 0), rgb(255, 255, 255)); font-weight: normal;&quot;&gt;Confidentiality&amp;nbsp;&lt;/span&gt;&lt;span style=&quot;background-color: transparent; color: light-dark(rgb(0, 0, 0), rgb(255, 255, 255)); font-weight: normal;&quot;&gt;of account&lt;/span&gt;&lt;/font&gt;&lt;/h1&gt;" style="text;html=1;whiteSpace=wrap;overflow=hidden;rounded=0;" parent="1" vertex="1">
          <mxGeometry x="-340" y="340" width="150" height="40" as="geometry" />
        </mxCell>
        <mxCell id="l8I180Yaeam13vPU595R-16" value="&lt;h1 style=&quot;forced-color-adjust: none; color: rgb(0, 0, 0); font-family: Helvetica; font-style: normal; font-variant-ligatures: normal; font-variant-caps: normal; letter-spacing: normal; orphans: 2; text-align: left; text-indent: 0px; text-transform: none; widows: 2; word-spacing: 0px; -webkit-text-stroke-width: 0px; white-space: normal; background-color: rgb(251, 251, 251); text-decoration-thickness: initial; text-decoration-style: initial; text-decoration-color: initial; margin-top: 0px;&quot;&gt;&lt;span style=&quot;font-size: 13px; font-weight: 400;&quot;&gt;Role based access controls&lt;/span&gt;&lt;/h1&gt;" style="text;whiteSpace=wrap;html=1;" parent="1" vertex="1">
          <mxGeometry x="-910" y="350" width="180" height="30" as="geometry" />
        </mxCell>
        <mxCell id="l8I180Yaeam13vPU595R-17" value="&lt;h1 style=&quot;forced-color-adjust: none; color: rgb(0, 0, 0); font-family: Helvetica; font-style: normal; font-variant-ligatures: normal; font-variant-caps: normal; letter-spacing: normal; orphans: 2; text-align: left; text-indent: 0px; text-transform: none; widows: 2; word-spacing: 0px; -webkit-text-stroke-width: 0px; white-space: normal; background-color: rgb(251, 251, 251); text-decoration-thickness: initial; text-decoration-style: initial; text-decoration-color: initial; margin-top: 0px;&quot;&gt;&lt;span style=&quot;font-size: 13px; font-weight: 400;&quot;&gt;Data Encryption&lt;/span&gt;&lt;/h1&gt;" style="text;whiteSpace=wrap;html=1;" parent="1" vertex="1">
          <mxGeometry x="-586.25" y="470" width="180" height="30" as="geometry" />
        </mxCell>
        <mxCell id="l8I180Yaeam13vPU595R-19" value="&lt;h1 style=&quot;margin-top: 0px;&quot;&gt;&lt;span style=&quot;font-weight: 400;&quot;&gt;&lt;font style=&quot;font-size: 14px;&quot;&gt;Authorize access to account information&lt;/font&gt;&lt;/span&gt;&lt;/h1&gt;" style="text;html=1;whiteSpace=wrap;overflow=hidden;rounded=0;spacing=0;spacingRight=1;spacingLeft=3;" parent="1" vertex="1">
          <mxGeometry x="-250" y="605" width="170" height="85" as="geometry" />
        </mxCell>
        <mxCell id="l8I180Yaeam13vPU595R-20" value="" style="endArrow=classic;html=1;rounded=0;entryX=0.55;entryY=0.95;entryDx=0;entryDy=0;entryPerimeter=0;exitX=0.4;exitY=0.1;exitDx=0;exitDy=0;exitPerimeter=0;" parent="1" source="l8I180Yaeam13vPU595R-2" target="l8I180Yaeam13vPU595R-12" edge="1">
          <mxGeometry width="50" height="50" relative="1" as="geometry">
            <mxPoint x="-470" y="510" as="sourcePoint" />
            <mxPoint x="-420" y="460" as="targetPoint" />
          </mxGeometry>
        </mxCell>
        <mxCell id="l8I180Yaeam13vPU595R-22" value="&lt;font style=&quot;font-size: 17px;&quot;&gt;+&lt;/font&gt;" style="text;html=1;align=center;verticalAlign=middle;whiteSpace=wrap;rounded=0;" parent="1" vertex="1">
          <mxGeometry x="-320" y="510" width="36" height="30" as="geometry" />
        </mxCell>
        <mxCell id="l8I180Yaeam13vPU595R-23" value="" style="ellipse;shape=cloud;whiteSpace=wrap;html=1;strokeWidth=4;" parent="1" vertex="1">
          <mxGeometry x="-540" y="870" width="100" height="60" as="geometry" />
        </mxCell>
        <mxCell id="l8I180Yaeam13vPU595R-24" value="" style="ellipse;shape=cloud;whiteSpace=wrap;html=1;strokeWidth=4;" parent="1" vertex="1">
          <mxGeometry x="-330" y="865" width="100" height="60" as="geometry" />
        </mxCell>
        <mxCell id="l8I180Yaeam13vPU595R-25" value="" style="ellipse;shape=cloud;whiteSpace=wrap;html=1;strokeWidth=4;" parent="1" vertex="1">
          <mxGeometry x="-160" y="805" width="100" height="60" as="geometry" />
        </mxCell>
        <mxCell id="l8I180Yaeam13vPU595R-26" value="" style="endArrow=none;html=1;rounded=0;entryX=0.468;entryY=0.937;entryDx=0;entryDy=0;entryPerimeter=0;exitX=0.625;exitY=0.2;exitDx=0;exitDy=0;exitPerimeter=0;" parent="1" source="l8I180Yaeam13vPU595R-23" target="l8I180Yaeam13vPU595R-2" edge="1">
          <mxGeometry width="50" height="50" relative="1" as="geometry">
            <mxPoint x="-341" y="800" as="sourcePoint" />
            <mxPoint x="-310" y="680" as="targetPoint" />
          </mxGeometry>
        </mxCell>
        <mxCell id="l8I180Yaeam13vPU595R-27" value="" style="endArrow=none;html=1;rounded=0;exitX=0.4;exitY=0.1;exitDx=0;exitDy=0;exitPerimeter=0;" parent="1" source="l8I180Yaeam13vPU595R-24" edge="1">
          <mxGeometry width="50" height="50" relative="1" as="geometry">
            <mxPoint x="-360" y="730" as="sourcePoint" />
            <mxPoint x="-310" y="667" as="targetPoint" />
          </mxGeometry>
        </mxCell>
        <mxCell id="l8I180Yaeam13vPU595R-28" value="" style="endArrow=none;html=1;rounded=0;entryX=0.55;entryY=0.95;entryDx=0;entryDy=0;entryPerimeter=0;exitX=0.25;exitY=0.25;exitDx=0;exitDy=0;exitPerimeter=0;" parent="1" source="l8I180Yaeam13vPU595R-25" target="l8I180Yaeam13vPU595R-2" edge="1">
          <mxGeometry width="50" height="50" relative="1" as="geometry">
            <mxPoint x="-360" y="730" as="sourcePoint" />
            <mxPoint x="-310" y="670" as="targetPoint" />
          </mxGeometry>
        </mxCell>
        <mxCell id="l8I180Yaeam13vPU595R-29" value="" style="verticalLabelPosition=bottom;verticalAlign=top;html=1;shape=mxgraph.basic.arc;startAngle=0.6135605841555867;endAngle=0.8960233250599706;rotation=-90;" parent="1" vertex="1">
          <mxGeometry x="-350" y="620" width="100" height="100" as="geometry" />
        </mxCell>
        <mxCell id="l8I180Yaeam13vPU595R-31" value="&lt;h1 style=&quot;margin-top: 0px;&quot;&gt;&lt;font style=&quot;font-size: 12px;&quot;&gt;&lt;span style=&quot;background-color: transparent; color: light-dark(rgb(0, 0, 0), rgb(255, 255, 255)); font-weight: normal;&quot;&gt;Verify access based on eligibility criteria&lt;/span&gt;&lt;span style=&quot;background-color: transparent; color: light-dark(rgb(0, 0, 0), rgb(255, 255, 255)); font-weight: normal;&quot;&gt;.&lt;/span&gt;&lt;/font&gt;&lt;/h1&gt;" style="text;html=1;whiteSpace=wrap;overflow=hidden;rounded=0;" parent="1" vertex="1">
          <mxGeometry x="-540" y="925" width="126.25" height="70" as="geometry" />
        </mxCell>
        <mxCell id="l8I180Yaeam13vPU595R-32" value="Identify Users" style="text;html=1;align=center;verticalAlign=middle;whiteSpace=wrap;rounded=0;" parent="1" vertex="1">
          <mxGeometry x="-320" y="930" width="80" height="30" as="geometry" />
        </mxCell>
        <mxCell id="l8I180Yaeam13vPU595R-33" value="&lt;font style=&quot;font-size: 17px;&quot;&gt;Space for account&lt;/font&gt;" style="text;html=1;align=center;verticalAlign=middle;whiteSpace=wrap;rounded=0;" parent="1" vertex="1">
          <mxGeometry x="-1280" y="550" width="90" height="30" as="geometry" />
        </mxCell>
        <mxCell id="l8I180Yaeam13vPU595R-34" value="Authenticate user access" style="text;html=1;align=center;verticalAlign=middle;whiteSpace=wrap;rounded=0;" parent="1" vertex="1">
          <mxGeometry x="10" y="785" width="60" height="30" as="geometry" />
        </mxCell>
        <mxCell id="l8I180Yaeam13vPU595R-35" value="" style="ellipse;shape=cloud;whiteSpace=wrap;html=1;strokeWidth=4;" parent="1" vertex="1">
          <mxGeometry x="-140" y="960" width="100" height="60" as="geometry" />
        </mxCell>
        <mxCell id="l8I180Yaeam13vPU595R-36" value="" style="ellipse;shape=cloud;whiteSpace=wrap;html=1;strokeWidth=4;" parent="1" vertex="1">
          <mxGeometry x="110" y="900" width="100" height="60" as="geometry" />
        </mxCell>
        <mxCell id="l8I180Yaeam13vPU595R-37" value="" style="endArrow=none;html=1;rounded=0;entryX=0.55;entryY=0.95;entryDx=0;entryDy=0;entryPerimeter=0;exitX=0.4;exitY=0.1;exitDx=0;exitDy=0;exitPerimeter=0;" parent="1" source="l8I180Yaeam13vPU595R-35" target="l8I180Yaeam13vPU595R-25" edge="1">
          <mxGeometry width="50" height="50" relative="1" as="geometry">
            <mxPoint x="-180" y="836" as="sourcePoint" />
            <mxPoint x="-300" y="677" as="targetPoint" />
            <Array as="points" />
          </mxGeometry>
        </mxCell>
        <mxCell id="l8I180Yaeam13vPU595R-38" value="" style="endArrow=none;html=1;rounded=0;entryX=0.8;entryY=0.8;entryDx=0;entryDy=0;entryPerimeter=0;exitX=0.25;exitY=0.25;exitDx=0;exitDy=0;exitPerimeter=0;" parent="1" source="l8I180Yaeam13vPU595R-36" target="l8I180Yaeam13vPU595R-25" edge="1">
          <mxGeometry width="50" height="50" relative="1" as="geometry">
            <mxPoint x="-20" y="946" as="sourcePoint" />
            <mxPoint x="-35" y="837" as="targetPoint" />
            <Array as="points" />
          </mxGeometry>
        </mxCell>
        <mxCell id="l8I180Yaeam13vPU595R-39" value="" style="verticalLabelPosition=bottom;verticalAlign=top;html=1;shape=mxgraph.basic.arc;startAngle=0.6227265126064205;endAngle=0.8457755991281268;rotation=-105;" parent="1" vertex="1">
          <mxGeometry x="-134.83000000000004" y="786.29" width="100" height="110" as="geometry" />
        </mxCell>
        <mxCell id="l8I180Yaeam13vPU595R-41" value="" style="verticalLabelPosition=bottom;verticalAlign=top;html=1;shape=mxgraph.basic.arc;startAngle=0.3462732075153364;endAngle=0.5292017421386704;rotation=5;" parent="1" vertex="1">
          <mxGeometry x="-140" y="780" width="100" height="100" as="geometry" />
        </mxCell>
        <mxCell id="l8I180Yaeam13vPU595R-42" value="Use Password" style="text;html=1;align=center;verticalAlign=middle;whiteSpace=wrap;rounded=0;" parent="1" vertex="1">
          <mxGeometry x="-30" y="990" width="80" height="30" as="geometry" />
        </mxCell>
        <mxCell id="l8I180Yaeam13vPU595R-43" value="Require Additional Information" style="text;html=1;align=center;verticalAlign=middle;whiteSpace=wrap;rounded=0;" parent="1" vertex="1">
          <mxGeometry x="180" y="960" width="80" height="30" as="geometry" />
        </mxCell>
        <mxCell id="l8I180Yaeam13vPU595R-44" value="" style="ellipse;shape=cloud;whiteSpace=wrap;html=1;" parent="1" vertex="1">
          <mxGeometry x="-1030" y="460" width="120" height="80" as="geometry" />
        </mxCell>
        <mxCell id="l8I180Yaeam13vPU595R-49" value="&lt;h1 style=&quot;forced-color-adjust: none; color: rgb(0, 0, 0); font-family: Helvetica; font-style: normal; font-variant-ligatures: normal; font-variant-caps: normal; letter-spacing: normal; orphans: 2; text-align: left; text-indent: 0px; text-transform: none; widows: 2; word-spacing: 0px; -webkit-text-stroke-width: 0px; white-space: normal; background-color: rgb(251, 251, 251); text-decoration-thickness: initial; text-decoration-style: initial; text-decoration-color: initial; margin-top: 0px;&quot;&gt;&lt;span style=&quot;font-weight: 400;&quot;&gt;&lt;font style=&quot;font-size: 17px;&quot;&gt;Response time for accounts&lt;/font&gt;&lt;/span&gt;&lt;/h1&gt;" style="text;whiteSpace=wrap;html=1;" parent="1" vertex="1">
          <mxGeometry x="-1010" y="530" width="120" height="60" as="geometry" />
        </mxCell>
        <mxCell id="l8I180Yaeam13vPU595R-50" value="" style="endArrow=block;dashed=1;endFill=0;endSize=12;html=1;rounded=0;entryX=0.96;entryY=0.7;entryDx=0;entryDy=0;entryPerimeter=0;exitX=0.07;exitY=0.4;exitDx=0;exitDy=0;exitPerimeter=0;" parent="1" source="l8I180Yaeam13vPU595R-23" target="l8I180Yaeam13vPU595R-44" edge="1">
          <mxGeometry width="160" relative="1" as="geometry">
            <mxPoint x="-870" y="570" as="sourcePoint" />
            <mxPoint x="-710" y="570" as="targetPoint" />
          </mxGeometry>
        </mxCell>
        <mxCell id="l8I180Yaeam13vPU595R-51" value="" style="ellipse;shape=cloud;whiteSpace=wrap;html=1;" parent="1" vertex="1">
          <mxGeometry x="-1240" y="470" width="120" height="80" as="geometry" />
        </mxCell>
        <mxCell id="l8I180Yaeam13vPU595R-52" value="" style="ellipse;shape=cloud;whiteSpace=wrap;html=1;strokeWidth=4;" parent="1" vertex="1">
          <mxGeometry x="-1160" y="650" width="120" height="80" as="geometry" />
        </mxCell>
        <mxCell id="l8I180Yaeam13vPU595R-53" value="" style="endArrow=block;dashed=1;endFill=0;endSize=12;html=1;rounded=0;entryX=0.674;entryY=0.958;entryDx=0;entryDy=0;entryPerimeter=0;" parent="1" source="l8I180Yaeam13vPU595R-52" target="l8I180Yaeam13vPU595R-51" edge="1">
          <mxGeometry width="160" relative="1" as="geometry">
            <mxPoint x="-1060" y="670" as="sourcePoint" />
            <mxPoint x="-900" y="670" as="targetPoint" />
          </mxGeometry>
        </mxCell>
        <mxCell id="l8I180Yaeam13vPU595R-55" value="" style="endArrow=open;endFill=1;endSize=12;html=1;rounded=0;entryX=0.13;entryY=0.77;entryDx=0;entryDy=0;entryPerimeter=0;exitX=0.4;exitY=0.1;exitDx=0;exitDy=0;exitPerimeter=0;" parent="1" source="l8I180Yaeam13vPU595R-52" target="l8I180Yaeam13vPU595R-44" edge="1">
          <mxGeometry width="160" relative="1" as="geometry">
            <mxPoint x="-1060" y="670" as="sourcePoint" />
            <mxPoint x="-900" y="670" as="targetPoint" />
          </mxGeometry>
        </mxCell>
        <mxCell id="l8I180Yaeam13vPU595R-56" value="&lt;font style=&quot;font-size: 19px;&quot;&gt;+&lt;/font&gt;" style="text;html=1;align=center;verticalAlign=middle;whiteSpace=wrap;rounded=0;" parent="1" vertex="1">
          <mxGeometry x="-1083" y="590" width="60" height="30" as="geometry" />
        </mxCell>
        <mxCell id="l8I180Yaeam13vPU595R-58" value="&lt;span style=&quot;font-size: 19px;&quot;&gt;-&lt;/span&gt;" style="text;html=1;align=center;verticalAlign=middle;whiteSpace=wrap;rounded=0;" parent="1" vertex="1">
          <mxGeometry x="-1180" y="590" width="60" height="30" as="geometry" />
        </mxCell>
        <mxCell id="l8I180Yaeam13vPU595R-59" value="" style="ellipse;shape=cloud;whiteSpace=wrap;html=1;" parent="1" vertex="1">
          <mxGeometry x="-1170" y="80" width="120" height="80" as="geometry" />
        </mxCell>
        <mxCell id="l8I180Yaeam13vPU595R-60" value="" style="endArrow=none;html=1;rounded=0;exitX=0.4;exitY=0.1;exitDx=0;exitDy=0;exitPerimeter=0;entryX=0.31;entryY=0.8;entryDx=0;entryDy=0;entryPerimeter=0;" parent="1" source="l8I180Yaeam13vPU595R-51" target="l8I180Yaeam13vPU595R-59" edge="1">
          <mxGeometry width="50" height="50" relative="1" as="geometry">
            <mxPoint x="-910" y="480" as="sourcePoint" />
            <mxPoint x="-860" y="430" as="targetPoint" />
          </mxGeometry>
        </mxCell>
        <mxCell id="l8I180Yaeam13vPU595R-61" value="" style="endArrow=none;html=1;rounded=0;entryX=0.55;entryY=0.95;entryDx=0;entryDy=0;entryPerimeter=0;exitX=0.4;exitY=0.1;exitDx=0;exitDy=0;exitPerimeter=0;" parent="1" source="l8I180Yaeam13vPU595R-44" target="l8I180Yaeam13vPU595R-59" edge="1">
          <mxGeometry width="50" height="50" relative="1" as="geometry">
            <mxPoint x="-910" y="390" as="sourcePoint" />
            <mxPoint x="-860" y="340" as="targetPoint" />
          </mxGeometry>
        </mxCell>
        <mxCell id="l8I180Yaeam13vPU595R-62" value="" style="verticalLabelPosition=bottom;verticalAlign=top;html=1;shape=mxgraph.basic.arc;startAngle=0.5409543412124187;endAngle=0.8224018446619049;rotation=-45;" parent="1" vertex="1">
          <mxGeometry x="-1170" y="85" width="100" height="100" as="geometry" />
        </mxCell>
        <UserObject label="&lt;font style=&quot;font-size: 16px;&quot;&gt;&lt;u&gt;&lt;b&gt;Good Performance&lt;/b&gt;&lt;/u&gt;&lt;/font&gt;" placeholders="1" name="Variable" id="l8I180Yaeam13vPU595R-64">
          <mxCell style="text;html=1;strokeColor=none;fillColor=none;align=center;verticalAlign=middle;whiteSpace=wrap;overflow=hidden;" parent="1" vertex="1">
            <mxGeometry x="-1185" y="55" width="150" height="30" as="geometry" />
          </mxCell>
        </UserObject>
        <mxCell id="l8I180Yaeam13vPU595R-65" value="" style="ellipse;shape=cloud;whiteSpace=wrap;html=1;" parent="1" vertex="1">
          <mxGeometry x="-60" y="85" width="120" height="80" as="geometry" />
        </mxCell>
        <mxCell id="l8I180Yaeam13vPU595R-66" value="" style="ellipse;shape=cloud;whiteSpace=wrap;html=1;" parent="1" vertex="1">
          <mxGeometry x="-1420" y="410" width="120" height="80" as="geometry" />
        </mxCell>
        <mxCell id="l8I180Yaeam13vPU595R-67" value="&lt;span style=&quot;font-size: 16px;&quot;&gt;Fast Page loading&lt;/span&gt;" style="text;html=1;align=center;verticalAlign=middle;whiteSpace=wrap;rounded=0;" parent="1" vertex="1">
          <mxGeometry x="-1410" y="500" width="100" height="30" as="geometry" />
        </mxCell>
        <mxCell id="l8I180Yaeam13vPU595R-68" value="" style="endArrow=none;html=1;rounded=0;exitX=0.625;exitY=0.2;exitDx=0;exitDy=0;exitPerimeter=0;entryX=0.13;entryY=0.77;entryDx=0;entryDy=0;entryPerimeter=0;" parent="1" source="l8I180Yaeam13vPU595R-66" target="l8I180Yaeam13vPU595R-59" edge="1">
          <mxGeometry width="50" height="50" relative="1" as="geometry">
            <mxPoint x="-1220" y="380" as="sourcePoint" />
            <mxPoint x="-1180" y="120" as="targetPoint" />
          </mxGeometry>
        </mxCell>
        <mxCell id="l8I180Yaeam13vPU595R-69" value="" style="ellipse;shape=cloud;whiteSpace=wrap;html=1;strokeWidth=4;" parent="1" vertex="1">
          <mxGeometry x="-1580" y="600" width="120" height="100" as="geometry" />
        </mxCell>
        <mxCell id="l8I180Yaeam13vPU595R-70" value="&lt;font style=&quot;font-size: 16px;&quot;&gt;Use Uncompressed format&lt;/font&gt;" style="text;html=1;align=center;verticalAlign=middle;whiteSpace=wrap;rounded=0;" parent="1" vertex="1">
          <mxGeometry x="-1156.5" y="740" width="156.5" height="30" as="geometry" />
        </mxCell>
        <mxCell id="l8I180Yaeam13vPU595R-71" value="&lt;font style=&quot;font-size: 17px;&quot;&gt;Caching&lt;/font&gt;" style="text;html=1;align=center;verticalAlign=middle;whiteSpace=wrap;rounded=0;" parent="1" vertex="1">
          <mxGeometry x="-1580" y="710" width="113" height="30" as="geometry" />
        </mxCell>
        <mxCell id="l8I180Yaeam13vPU595R-74" value="" style="endArrow=open;endFill=1;endSize=12;html=1;rounded=0;entryX=0.13;entryY=0.77;entryDx=0;entryDy=0;entryPerimeter=0;exitX=0.4;exitY=0.1;exitDx=0;exitDy=0;exitPerimeter=0;" parent="1" source="l8I180Yaeam13vPU595R-69" target="l8I180Yaeam13vPU595R-66" edge="1">
          <mxGeometry width="160" relative="1" as="geometry">
            <mxPoint x="-1102" y="668" as="sourcePoint" />
            <mxPoint x="-1004" y="532" as="targetPoint" />
          </mxGeometry>
        </mxCell>
        <mxCell id="l8I180Yaeam13vPU595R-75" value="" style="ellipse;shape=cloud;whiteSpace=wrap;html=1;" parent="1" vertex="1">
          <mxGeometry x="-1570" y="340" width="120" height="80" as="geometry" />
        </mxCell>
        <mxCell id="l8I180Yaeam13vPU595R-77" value="&lt;div style=&quot;text-align: center;&quot;&gt;&lt;span style=&quot;background-color: transparent; color: light-dark(rgb(0, 0, 0), rgb(255, 255, 255)); font-size: 16px;&quot;&gt;Efficient Data Management&lt;/span&gt;&lt;/div&gt;" style="text;whiteSpace=wrap;html=1;" parent="1" vertex="1">
          <mxGeometry x="-1620" y="410" width="110" height="40" as="geometry" />
        </mxCell>
        <mxCell id="l8I180Yaeam13vPU595R-78" value="" style="endArrow=none;html=1;rounded=0;exitX=0.88;exitY=0.25;exitDx=0;exitDy=0;exitPerimeter=0;entryX=0.13;entryY=0.77;entryDx=0;entryDy=0;entryPerimeter=0;" parent="1" source="l8I180Yaeam13vPU595R-75" target="l8I180Yaeam13vPU595R-59" edge="1">
          <mxGeometry width="50" height="50" relative="1" as="geometry">
            <mxPoint x="-1310" y="430" as="sourcePoint" />
            <mxPoint x="-1260" y="380" as="targetPoint" />
          </mxGeometry>
        </mxCell>
        <mxCell id="l8I180Yaeam13vPU595R-79" value="&lt;h1 style=&quot;margin-top: 0px;&quot;&gt;&lt;span style=&quot;font-size: 16px; font-weight: 400;&quot;&gt;&amp;nbsp;Safety&amp;nbsp;&lt;/span&gt;&lt;/h1&gt;" style="text;html=1;whiteSpace=wrap;overflow=hidden;rounded=0;fontStyle=4" parent="1" vertex="1">
          <mxGeometry x="-20" y="45" width="90" height="40" as="geometry" />
        </mxCell>
        <mxCell id="l8I180Yaeam13vPU595R-80" value="" style="endArrow=none;html=1;rounded=0;entryX=0.31;entryY=0.8;entryDx=0;entryDy=0;entryPerimeter=0;" parent="1" target="l8I180Yaeam13vPU595R-65" edge="1">
          <mxGeometry width="50" height="50" relative="1" as="geometry">
            <mxPoint x="-130" y="430" as="sourcePoint" />
            <mxPoint x="-100" y="320" as="targetPoint" />
          </mxGeometry>
        </mxCell>
        <mxCell id="l8I180Yaeam13vPU595R-81" value="" style="endArrow=none;html=1;rounded=0;" parent="1" edge="1">
          <mxGeometry width="50" height="50" relative="1" as="geometry">
            <mxPoint x="140" y="410" as="sourcePoint" />
            <mxPoint x="20" y="160" as="targetPoint" />
          </mxGeometry>
        </mxCell>
        <mxCell id="l8I180Yaeam13vPU595R-82" value="" style="ellipse;shape=cloud;whiteSpace=wrap;html=1;" parent="1" vertex="1">
          <mxGeometry x="100" y="400" width="120" height="90" as="geometry" />
        </mxCell>
        <mxCell id="l8I180Yaeam13vPU595R-84" value="" style="ellipse;shape=cloud;whiteSpace=wrap;html=1;" parent="1" vertex="1">
          <mxGeometry x="-200" y="410" width="120" height="80" as="geometry" />
        </mxCell>
        <mxCell id="l8I180Yaeam13vPU595R-85" value="" style="verticalLabelPosition=bottom;verticalAlign=top;html=1;shape=mxgraph.basic.arc;startAngle=0.36808457521666904;endAngle=0.6475836176504333;" parent="1" vertex="1">
          <mxGeometry x="-50" y="111.88" width="100" height="100" as="geometry" />
        </mxCell>
        <mxCell id="l8I180Yaeam13vPU595R-89" value="&lt;font style=&quot;font-size: 15px;&quot;&gt;Monitor User activity&lt;/font&gt;" style="text;html=1;align=center;verticalAlign=middle;whiteSpace=wrap;rounded=0;" parent="1" vertex="1">
          <mxGeometry x="-190" y="490" width="120" height="30" as="geometry" />
        </mxCell>
        <mxCell id="l8I180Yaeam13vPU595R-91" value="&lt;span style=&quot;font-size: 15px;&quot;&gt;Ban Suspicious Users&lt;/span&gt;" style="text;html=1;align=center;verticalAlign=middle;whiteSpace=wrap;rounded=0;" parent="1" vertex="1">
          <mxGeometry x="120" y="500" width="120" height="30" as="geometry" />
        </mxCell>
        <mxCell id="l8I180Yaeam13vPU595R-92" value="" style="endArrow=classic;html=1;rounded=0;exitX=0.13;exitY=0.77;exitDx=0;exitDy=0;exitPerimeter=0;entryX=0.625;entryY=0.2;entryDx=0;entryDy=0;entryPerimeter=0;" parent="1" source="l8I180Yaeam13vPU595R-82" target="l8I180Yaeam13vPU595R-25" edge="1">
          <mxGeometry width="50" height="50" relative="1" as="geometry">
            <mxPoint x="-210" y="610" as="sourcePoint" />
            <mxPoint x="-160" y="560" as="targetPoint" />
          </mxGeometry>
        </mxCell>
        <mxCell id="l8I180Yaeam13vPU595R-93" value="&lt;font style=&quot;font-size: 17px;&quot;&gt;+&lt;/font&gt;" style="text;html=1;align=center;verticalAlign=middle;whiteSpace=wrap;rounded=0;" parent="1" vertex="1">
          <mxGeometry x="14" y="640" width="36" height="30" as="geometry" />
        </mxCell>
      </root>
    </mxGraphModel>
  </diagram>
</mxfile>
